<svg width="235" height="222" viewBox="0 0 235 222" fill="none" xmlns="http://www.w3.org/2000/svg">
<g clip-path="url(#clip0_429374_17448)">
<path d="M187.103 63.0143C186.724 57.7526 184.259 51.4511 169.852 55.5156C162.427 57.6266 155.571 57.7211 152.633 54.8224C152.286 54.4189 151.959 53.9983 151.654 53.5621C150.548 51.3251 151.022 47.9223 153.834 43.1647C154.443 41.8424 155.438 40.7346 156.69 39.9867C157.942 39.2389 159.391 38.886 160.848 38.9743C163.154 38.9743 165.776 39.4469 168.967 39.3839C178.983 39.1318 182.806 32.8934 182.364 27.1591C182.364 25.4262 179.962 25.9618 175.602 24.922C171.242 23.8823 167.798 24.4179 166.914 18.3055C166.387 16.5896 165.356 15.0712 163.953 13.9475C162.55 12.8238 160.841 12.1467 159.047 12.0041C155.54 11.4685 148.052 7.90814 142.46 12.3822L137.626 10.2712C134.466 9.4835 134.466 11.689 131.528 12.7918C128.59 13.8945 123.408 11.1849 124.83 14.7767C125.874 16.8642 127.634 18.5086 129.791 19.4107C131.948 20.3127 134.358 20.4125 136.583 19.6918C133.139 37.0208 116.457 40.9277 102.556 40.3921C93.6799 40.0477 85.304 36.2043 79.2676 29.706C73.2311 23.2078 70.0278 14.5859 70.361 5.73414C70.5506 0.409417 68.8129 -1.13444 67.2015 1.6382C66.5552 2.80834 66.0665 4.05842 65.7482 5.35605C65.5902 5.89168 65.4638 6.49031 65.3375 7.12046C64.4427 13.3051 65.1916 19.6155 67.5091 25.4211C69.8267 31.2266 73.6318 36.3238 78.544 40.2031C75.6412 42.7537 73.5906 46.1291 72.6674 49.8758C72.0323 52.5732 71.957 55.3717 72.4462 58.0992C72.4462 58.8238 72.7306 59.2334 72.7306 59.2334C73.9312 64.9677 63.2522 68.6856 58.6078 69.5678H57.5968C56.9764 69.6159 56.3531 69.6159 55.7327 69.5678C55.0447 69.5511 54.3586 69.488 53.6791 69.3788C50.8672 69.1582 48.8135 69.5993 47.0126 76.5309C44.4851 86.2666 37.1235 84.0926 35.3542 86.8338C32.5739 91.2448 36.7128 94.553 41.9891 94.8366C45.4417 95.075 48.8488 93.9424 51.4675 91.6859C60.5667 83.494 56.2066 79.8707 65.2427 80.4693C66.3801 80.4693 67.7702 80.6899 69.4131 80.9104C79.4286 82.2022 86.5374 84.2817 96.3949 73.6637C96.9894 72.8406 97.6787 72.0898 98.4485 71.4267C98.9529 71.0004 99.5311 70.6694 100.155 70.45C100.729 70.3417 101.318 70.3417 101.892 70.45C105.715 71.3322 114.309 76.0268 124.008 74.4514C127.811 73.0785 131.286 70.9327 134.214 68.15C134.214 68.15 135.762 66.7952 136.741 68.15C137.72 69.5048 139.363 72.0569 140.817 73.6007C144.261 77.3501 144.324 75.8062 151.654 72.8446C152.38 72.5295 153.17 72.2144 154.055 71.8993C173.012 64.9678 172.727 62.7307 176.55 70.2925C177.245 71.6788 179.71 71.8363 182.016 70.8911C183.613 70.3161 184.976 69.2336 185.895 67.8103C186.814 66.387 187.238 64.7018 187.103 63.0143Z" fill="#FFA900"/>
<path d="M42.2735 209.397C42.2784 210.538 41.9002 211.647 41.1992 212.548C40.5114 213.473 39.5826 214.192 38.5137 214.627L43.1581 221.748H39.7143L35.4174 215.037H30.4887V221.748H27.6768V203.757H36.5233C37.4938 203.751 38.4503 203.989 39.3036 204.451C40.1754 204.922 40.9143 205.605 41.452 206.436C41.9985 207.327 42.2832 208.353 42.2735 209.397ZM35.9545 206.436H30.4887V212.359H36.3653C36.9205 212.377 37.4692 212.235 37.945 211.949C38.3918 211.69 38.7538 211.307 38.9876 210.847C39.2649 210.368 39.4109 209.824 39.4109 209.271C39.4109 208.718 39.2649 208.175 38.9876 207.696C38.6654 207.244 38.2294 206.886 37.7238 206.656C37.1449 206.461 36.532 206.386 35.923 206.436H35.9545Z" fill="white"/>
<path d="M53.2368 203.757H66.0641V206.435H56.0171V211.099H64.6424V213.777H56.0171V218.975H66.0641V221.653H53.2368V203.757Z" fill="white"/>
<path d="M100.502 203.757L94.1833 221.748H92.2244L87.4536 210.594L82.746 221.748H80.7556L74.6263 203.757H77.7857L81.3875 214.722C81.5491 215.176 81.6862 215.639 81.7982 216.108C81.7982 216.549 82.051 216.99 82.1457 217.432C82.1457 216.99 82.4301 216.549 82.5881 216.108C82.746 215.667 82.9356 215.194 83.1252 214.722L86.4426 206.845H88.9702L92.1296 214.722C92.3192 215.194 92.4772 215.667 92.6351 216.108C92.7931 216.549 92.9511 216.99 93.109 217.368C93.109 216.959 93.3302 216.549 93.4566 216.077C93.583 215.604 93.7409 215.131 93.8989 214.627L97.6587 203.757H100.502Z" fill="white"/>
<path d="M121.86 221.748L120.059 217.4H111.244L109.349 221.78H106.474L114.214 203.789H117.374L125.051 221.78L121.86 221.748ZM114.214 210.374L112.382 214.722H118.701L116.9 210.28L116.236 208.547C116.015 207.948 115.794 207.349 115.541 206.719C115.32 207.349 115.099 207.98 114.846 208.61C114.593 209.24 114.467 209.807 114.214 210.374Z" fill="white"/>
<path d="M148.494 209.397C148.497 210.532 148.131 211.637 147.452 212.548C146.762 213.484 145.82 214.206 144.734 214.627L149.379 221.748H146.03L141.701 215.037H136.773V221.748H133.992V203.757H142.807C143.788 203.755 144.754 204 145.615 204.468C146.476 204.936 147.206 205.612 147.736 206.435C148.274 207.328 148.537 208.357 148.494 209.397ZM142.175 206.435H136.773V212.359H142.649C143.213 212.368 143.77 212.227 144.261 211.949C144.699 211.679 145.059 211.299 145.303 210.846C145.557 210.394 145.688 209.884 145.682 209.366C145.699 208.87 145.578 208.38 145.335 207.948C145.021 207.501 144.597 207.142 144.103 206.908C143.503 206.61 142.845 206.449 142.175 206.435Z" fill="white"/>
<path d="M167.451 203.758C168.801 203.724 170.143 203.96 171.4 204.451C172.477 204.876 173.447 205.531 174.244 206.369C175.04 207.207 175.644 208.208 176.013 209.303C176.396 210.407 176.588 211.568 176.582 212.737C176.625 214.353 176.267 215.955 175.539 217.4C174.816 218.735 173.718 219.83 172.38 220.551C170.839 221.413 169.091 221.838 167.325 221.78H159.426V203.758H167.451ZM167.451 219.07C168.728 219.126 169.995 218.832 171.116 218.219C172.019 217.679 172.735 216.876 173.17 215.919C173.618 214.93 173.844 213.854 173.833 212.769C173.847 211.682 173.621 210.607 173.17 209.618C172.726 208.649 171.999 207.837 171.084 207.286C169.974 206.678 168.717 206.384 167.451 206.436H162.333V219.039L167.451 219.07Z" fill="white"/>
<path d="M186.945 216.266C187.661 217.209 188.538 218.019 189.535 218.66C190.578 219.266 191.773 219.561 192.979 219.511C193.663 219.514 194.345 219.419 195.001 219.227C195.601 219.064 196.153 218.762 196.613 218.345C196.815 218.162 196.976 217.938 197.085 217.688C197.194 217.438 197.248 217.168 197.245 216.896C197.246 216.487 197.123 216.087 196.892 215.75C196.661 215.412 196.332 215.152 195.949 215.005C194.786 214.523 193.565 214.194 192.316 214.029C190.662 213.826 189.08 213.232 187.703 212.296C187.132 211.878 186.674 211.326 186.371 210.688C186.067 210.05 185.928 209.346 185.965 208.641C185.956 207.631 186.303 206.65 186.945 205.868C187.628 205.081 188.497 204.475 189.472 204.104C190.57 203.678 191.738 203.464 192.916 203.474C194.333 203.437 195.739 203.728 197.023 204.325C198.147 204.819 199.103 205.629 199.772 206.656L197.845 208.641C197.311 207.846 196.597 207.187 195.76 206.719C194.878 206.211 193.871 205.96 192.853 205.994C191.868 205.968 190.891 206.185 190.009 206.625C189.658 206.804 189.363 207.078 189.157 207.414C188.951 207.75 188.842 208.137 188.842 208.531C188.842 208.925 188.951 209.311 189.157 209.648C189.363 209.984 189.658 210.257 190.009 210.437C191.019 210.875 192.081 211.183 193.169 211.351C194.054 211.351 194.907 211.697 195.696 211.918C196.459 212.144 197.191 212.461 197.876 212.863C198.498 213.207 199.028 213.693 199.425 214.281C199.819 214.89 200.017 215.604 199.993 216.329C200.055 217.448 199.744 218.556 199.109 219.48C198.46 220.369 197.573 221.057 196.549 221.464C195.315 221.959 193.993 222.195 192.663 222.158C191.189 222.188 189.725 221.909 188.366 221.338C187.012 220.762 185.835 219.838 184.954 218.66L186.945 216.266Z" fill="white"/>
<path d="M175.634 116.986H187.924V144.02C188.651 143.074 189.156 142.224 189.788 141.467C192.25 138.711 195.605 136.905 199.267 136.363C203.418 135.534 207.721 135.928 211.652 137.498C213.965 138.498 216.021 140.007 217.668 141.911C219.315 143.815 220.509 146.065 221.162 148.494C222.049 151.426 222.496 154.473 222.489 157.536C222.489 163.207 222.489 168.879 222.489 174.55C222.493 175.381 222.61 176.208 222.836 177.008C222.937 177.6 223.254 178.134 223.727 178.507C224.199 178.879 224.794 179.064 225.395 179.024C226.154 179.024 226.912 179.024 227.733 179.024C227.733 179.213 227.733 179.434 227.733 179.686C227.733 182.647 227.733 185.641 227.733 188.634C227.733 188.917 227.512 189.421 227.354 189.453C223.356 190.573 219.084 190.192 215.348 188.382C213.97 187.56 212.804 186.428 211.943 185.077C211.082 183.726 210.549 182.192 210.388 180.599C210.151 179.172 210.024 177.729 210.009 176.283C210.009 170.517 210.009 164.751 210.009 158.985C210.065 156.888 209.667 154.803 208.84 152.873C208.016 151.012 206.628 149.455 204.872 148.421C203.115 147.387 201.077 146.927 199.045 147.107C196.101 147.19 193.308 148.427 191.273 150.551C189.239 152.675 188.126 155.513 188.177 158.45C188.177 168.343 188.177 178.236 188.177 188.13V189.358H175.855L175.634 116.986Z" fill="white"/>
<path d="M83.8202 155.551C83.0381 151.441 81.2049 147.602 78.4982 144.406C75.7915 141.21 72.3029 138.765 68.3705 137.309C63.1249 135.316 57.3974 134.954 51.9414 136.269C47.866 136.991 44.0378 138.722 40.8083 141.304C37.5788 143.886 35.0515 147.236 33.4586 151.046C30.6698 157.559 30.1797 164.824 32.0684 171.652C32.7279 174.606 33.9697 177.401 35.7217 179.872C37.4736 182.344 39.7006 184.444 42.2735 186.05C46.3782 188.61 51.0218 190.187 55.8402 190.657C60.6585 191.127 65.5206 190.478 70.045 188.76C74.2538 187.229 78.0118 184.673 80.9767 181.324L73.5836 174.172C72.0773 175.443 70.4946 176.622 68.8444 177.701C66.5906 178.959 64.1064 179.752 61.5391 180.033C58.9719 180.315 56.3742 180.079 53.9002 179.339C51.9701 178.908 50.1617 178.05 48.6087 176.828C47.0556 175.607 45.7976 174.053 44.9274 172.282C43.9921 170.434 43.4949 168.397 43.474 166.327H84.2942C84.7939 162.736 84.6333 159.085 83.8202 155.551ZM71.7511 157.536H43.8216C43.8841 155.896 44.3979 154.305 45.3065 152.936C46.4896 151.105 48.0681 149.56 49.9267 148.416C51.7853 147.271 53.8769 146.555 56.0487 146.32C57.9 145.987 59.7989 146.022 61.6367 146.422C63.4745 146.822 65.2152 147.58 66.7592 148.651C68.1908 149.554 69.3889 150.78 70.2562 152.231C71.1236 153.681 71.6357 155.316 71.7511 157.001C71.7674 157.179 71.7674 157.358 71.7511 157.536Z" fill="white"/>
<path d="M169.599 144.398L168.999 145.028C166.629 147.486 164.26 149.912 161.922 152.369C160.486 150.583 158.698 149.108 156.669 148.036C154.641 146.964 152.413 146.317 150.125 146.135C147.836 145.953 145.534 146.239 143.36 146.976C141.187 147.714 139.187 148.887 137.485 150.423C135.782 151.96 134.413 153.827 133.461 155.91C132.509 157.994 131.994 160.249 131.948 162.539C131.902 164.828 132.326 167.102 133.193 169.222C134.061 171.342 135.354 173.262 136.994 174.865C138.69 176.44 140.682 177.663 142.854 178.465C145.027 179.267 147.338 179.632 149.653 179.538C151.968 179.444 154.241 178.894 156.342 177.919C158.442 176.944 160.328 175.563 161.89 173.857L169.599 181.828C165.717 186.159 160.527 189.112 154.813 190.241C150.653 191.177 146.337 191.197 142.168 190.299C137.999 189.402 134.077 187.607 130.675 185.042C127.653 182.833 125.144 180.002 123.318 176.74C121.492 173.478 120.391 169.862 120.091 166.138C119.261 159.221 121.105 152.249 125.25 146.641C129.394 141.033 135.526 137.211 142.396 135.954C149.032 134.517 155.962 135.442 161.985 138.569C164.836 140.068 167.411 142.039 169.599 144.398Z" fill="white"/>
<path d="M115.762 179.182V190.304C114.656 190.461 113.551 190.65 112.413 190.745C108.955 191.13 105.455 190.83 102.113 189.863C99.7648 189.143 97.6677 187.776 96.0635 185.92C94.4593 184.064 93.4133 181.793 93.0458 179.371C92.6202 177.116 92.3981 174.828 92.3824 172.534C92.3824 164.846 92.3824 157.158 92.3824 149.47V148.336H85.8423V137.025H92.1612V116.986H104.799V136.962H116.363V148.305H104.957C104.957 148.651 104.957 148.872 104.957 149.092C104.957 156.969 104.957 164.825 104.957 172.66C104.972 173.575 105.1 174.485 105.336 175.369C105.533 176.56 106.151 177.641 107.078 178.415C108.006 179.19 109.181 179.607 110.391 179.591H113.045C113.93 179.591 114.814 179.308 115.762 179.182Z" fill="white"/>
<path d="M8.53052 174.393C8.52574 175.224 8.40885 176.05 8.18298 176.85C8.06986 177.437 7.74915 177.963 7.27936 178.333C6.80957 178.703 6.222 178.893 5.62382 178.867H3.15945C3.15945 179.056 3.15945 179.276 3.15945 179.497C3.15945 182.648 3.15945 185.483 3.15945 188.476C3.15945 188.76 3.34902 189.264 3.53859 189.296C7.61525 190.481 11.9894 190.099 15.7973 188.224C17.1751 187.403 18.3412 186.271 19.2024 184.92C20.0636 183.568 20.5962 182.035 20.7576 180.442C21.0104 179.024 21.1683 176.031 21.1683 176.031V148.305H30.8362V136.994H21.0104C21.0104 135.324 21.0104 133.843 21.0104 132.268C20.9151 131.392 21.0247 130.506 21.3304 129.679C21.6362 128.853 22.1298 128.108 22.7726 127.504C23.4154 126.899 24.1899 126.451 25.0353 126.196C25.8807 125.94 26.774 125.883 27.6452 126.029C29.2881 126.029 30.9626 126.029 32.6687 126.281V115.947H32.2896C28.6561 115.395 24.9598 115.395 21.3263 115.947C18.7634 116.25 16.3349 117.256 14.3104 118.852C12.2859 120.448 10.7446 122.573 9.85749 124.989C8.89596 127.633 8.44568 130.434 8.53052 133.244V137.057H0V148.431H8.53052V174.393Z" fill="white"/>
<path d="M235 141.94C235.025 142.626 234.844 143.303 234.48 143.885C234.116 144.466 233.585 144.926 232.957 145.205C232.328 145.483 231.631 145.567 230.953 145.447C230.276 145.326 229.651 145.007 229.158 144.528C228.665 144.05 228.327 143.436 228.187 142.765C228.047 142.093 228.112 141.395 228.373 140.761C228.635 140.126 229.081 139.585 229.653 139.205C230.226 138.826 230.9 138.626 231.588 138.632C232.03 138.624 232.47 138.703 232.882 138.865C233.293 139.027 233.668 139.269 233.986 139.577C234.303 139.884 234.556 140.251 234.73 140.657C234.904 141.063 234.996 141.499 235 141.94ZM228.997 141.94C229.01 142.45 229.173 142.944 229.466 143.361C229.76 143.778 230.171 144.1 230.647 144.284C231.123 144.469 231.643 144.51 232.143 144.401C232.642 144.291 233.097 144.037 233.452 143.67C233.807 143.304 234.045 142.84 234.136 142.339C234.227 141.837 234.168 141.32 233.965 140.853C233.763 140.385 233.426 139.987 232.997 139.71C232.569 139.432 232.067 139.288 231.556 139.294C231.213 139.298 230.875 139.37 230.56 139.505C230.245 139.641 229.96 139.837 229.722 140.084C229.484 140.33 229.297 140.621 229.173 140.939C229.048 141.258 228.989 141.598 228.997 141.94ZM231.051 143.642H230.292V140.333C230.713 140.308 231.135 140.308 231.556 140.333C231.953 140.289 232.353 140.378 232.694 140.585C232.809 140.666 232.902 140.775 232.963 140.902C233.023 141.029 233.051 141.17 233.041 141.31C233.02 141.497 232.943 141.672 232.818 141.813C232.694 141.954 232.529 142.054 232.346 142.098C232.514 142.163 232.659 142.275 232.766 142.42C232.872 142.565 232.935 142.738 232.946 142.917C232.978 143.194 233.064 143.461 233.199 143.705H232.378C232.244 143.458 232.148 143.192 232.093 142.917C232.093 142.57 231.841 142.413 231.43 142.413H231.051V143.642ZM231.051 141.783H231.398C231.841 141.783 232.188 141.783 232.188 141.31C232.188 140.837 231.967 140.806 231.461 140.806H231.051V141.783Z" fill="white"/>
</g>
<defs>
<clipPath id="clip0_429374_17448">
<rect width="235" height="222" fill="white"/>
</clipPath>
</defs>
</svg>
